<?xml version="1.0" encoding="utf-8" standalone="no"?>
<!DOCTYPE svg PUBLIC "-//W3C//DTD SVG 1.1//EN"
  "http://www.w3.org/Graphics/SVG/1.1/DTD/svg11.dtd">
<svg xmlns:xlink="http://www.w3.org/1999/xlink" width="507pt" height="303.84pt" viewBox="0 0 507 303.84" xmlns="http://www.w3.org/2000/svg" version="1.1">
 <metadata>
  <rdf:RDF xmlns:dc="http://purl.org/dc/elements/1.1/" xmlns:cc="http://creativecommons.org/ns#" xmlns:rdf="http://www.w3.org/1999/02/22-rdf-syntax-ns#">
   <cc:Work>
    <dc:type rdf:resource="http://purl.org/dc/dcmitype/StillImage"/>
    <dc:date>2026-09-11T20:47:38.499007</dc:date>
    <dc:format>image/svg+xml</dc:format>
    <dc:creator>
     <cc:Agent>
      <dc:title>Matplotlib v3.11.1, https://matplotlib.org/</dc:title>
     </cc:Agent>
    </dc:creator>
   </cc:Work>
  </rdf:RDF>
 </metadata>
 <defs>
  <style type="text/css">*{stroke-linejoin: round; stroke-linecap: butt}</style>
 </defs>
 <g id="figure_1">
  <g id="patch_1">
   <path d="M 0 303.84
L 507 303.84
L 507 0
L 0 0
z
" style="fill: #ffffff"/>
  </g>
  <g id="patch_2">
   <path d="M 4.563 94.642223
L 498.888 94.642223
L 498.888 72.281069
L 4.563 72.281069
z
" style="fill: #e7f3f2"/>
  </g>
  <g id="patch_3">
   <path d="M 4.563 119.767115
L 498.888 119.767115
L 498.888 97.405961
L 4.563 97.405961
z
" style="fill: #e7f3f2"/>
  </g>
  <g id="axes_1">
   <g id="patch_4">
    <path d="M 296.595 245.5172
L 496.86 245.5172
L 496.86 70.8992
L 296.595 70.8992
z
" style="fill: #ffffff"/>
   </g>
   <g id="patch_5">
    <path d="M 296.595 72.281069
L 496.86 72.281069
L 496.86 94.642223
L 296.595 94.642223
z
" clip-path="url(#p89777cd701)" style="fill: #e7f3f2; stroke: #e7f3f2; stroke-linejoin: miter"/>
   </g>
   <g id="patch_6">
    <path d="M 296.595 97.405961
L 496.86 97.405961
L 496.86 119.767115
L 296.595 119.767115
z
" clip-path="url(#p89777cd701)" style="fill: #e7f3f2; stroke: #e7f3f2; stroke-linejoin: miter"/>
   </g>
   <g id="line2d_1">
    <path d="M 351.667875 245.5172
L 351.667875 70.8992
" clip-path="url(#p89777cd701)" style="fill: none; stroke-dasharray: 2.4,2.4; stroke-dashoffset: 0; stroke: #354f61; stroke-width: 0.8"/>
   </g>
   <g id="matplotlib.axis_1">
    <g id="xtick_1">
     <g id="line2d_2">
      <defs>
       <path id="m1562ef1c51" d="M 0 0
L 0 3
" style="stroke: #354f61; stroke-width: 0.8"/>
      </defs>
      <g>
       <use xlink:href="#m1562ef1c51" x="301.601625" y="245.5172" style="fill: #354f61; stroke: #354f61; stroke-width: 0.8"/>
      </g>
     </g>
     <g id="text_1">
      <text style="font-size: 9.5px; font-family: 'DejaVu Sans'; text-anchor: middle; fill: #354f61" x="301.601625" y="259.234973" transform="rotate(-0 301.601625 259.234973)">-10</text>
     </g>
    </g>
    <g id="xtick_2">
     <g id="line2d_3">
      <g>
       <use xlink:href="#m1562ef1c51" x="351.667875" y="245.5172" style="fill: #354f61; stroke: #354f61; stroke-width: 0.8"/>
      </g>
     </g>
     <g id="text_2">
      <text style="font-size: 9.5px; font-family: 'DejaVu Sans'; text-anchor: middle; fill: #354f61" x="351.667875" y="259.234973" transform="rotate(-0 351.667875 259.234973)">0</text>
     </g>
    </g>
    <g id="xtick_3">
     <g id="line2d_4">
      <g>
       <use xlink:href="#m1562ef1c51" x="401.734125" y="245.5172" style="fill: #354f61; stroke: #354f61; stroke-width: 0.8"/>
      </g>
     </g>
     <g id="text_3">
      <text style="font-size: 9.5px; font-family: 'DejaVu Sans'; text-anchor: middle; fill: #354f61" x="401.734125" y="259.234973" transform="rotate(-0 401.734125 259.234973)">10</text>
     </g>
    </g>
    <g id="xtick_4">
     <g id="line2d_5">
      <g>
       <use xlink:href="#m1562ef1c51" x="451.800375" y="245.5172" style="fill: #354f61; stroke: #354f61; stroke-width: 0.8"/>
      </g>
     </g>
     <g id="text_4">
      <text style="font-size: 9.5px; font-family: 'DejaVu Sans'; text-anchor: middle; fill: #354f61" x="451.800375" y="259.234973" transform="rotate(-0 451.800375 259.234973)">20</text>
     </g>
    </g>
    <g id="text_5">
     <text style="font-size: 9.5px; font-family: 'DejaVu Sans'; text-anchor: middle; fill: #173349" x="396.7275" y="275.735716" transform="rotate(-0 396.7275 275.735716)">Score change (percentage points)</text>
    </g>
   </g>
   <g id="matplotlib.axis_2"/>
   <g id="patch_7">
    <path d="M 296.595 245.5172
L 496.86 245.5172
" style="fill: none; stroke: #c5d0d7; stroke-width: 0.8; stroke-linejoin: miter; stroke-linecap: square"/>
   </g>
   <g id="LineCollection_1">
    <path d="M 426.225295 83.461646
L 481.547643 83.461646
" clip-path="url(#p89777cd701)" style="fill: none; stroke: #007c80; stroke-width: 1.45"/>
   </g>
   <g id="line2d_6">
    <defs>
     <path id="m7b3aa0b959" d="M 0 3.2
L 0 -3.2
" style="stroke: #007c80"/>
    </defs>
    <g clip-path="url(#p89777cd701)">
     <use xlink:href="#m7b3aa0b959" x="426.225295" y="83.461646" style="fill: #007c80; stroke: #007c80"/>
    </g>
   </g>
   <g id="line2d_7">
    <g clip-path="url(#p89777cd701)">
     <use xlink:href="#m7b3aa0b959" x="481.547643" y="83.461646" style="fill: #007c80; stroke: #007c80"/>
    </g>
   </g>
   <g id="text_6">
    <g id="patch_8">
     <path d="M 434.787016 82.527921
L 472.985922 82.527921
L 472.985922 72.837921
L 434.787016 72.837921
z
" style="fill: #e7f3f2"/>
    </g>
    <text style="font-weight: 700; font-size: 9.5px; font-family: 'DejaVu Sans'; text-anchor: middle; fill: #007c80" x="453.886469" y="80.150694" transform="rotate(-0 453.886469 80.150694)">+20.42</text>
   </g>
   <g id="LineCollection_2">
    <path d="M 420.136279 108.586538
L 470.947909 108.586538
" clip-path="url(#p89777cd701)" style="fill: none; stroke: #007c80; stroke-width: 1.45"/>
   </g>
   <g id="line2d_8">
    <g clip-path="url(#p89777cd701)">
     <use xlink:href="#m7b3aa0b959" x="420.136279" y="108.586538" style="fill: #007c80; stroke: #007c80"/>
    </g>
   </g>
   <g id="line2d_9">
    <g clip-path="url(#p89777cd701)">
     <use xlink:href="#m7b3aa0b959" x="470.947909" y="108.586538" style="fill: #007c80; stroke: #007c80"/>
    </g>
   </g>
   <g id="text_7">
    <g id="patch_9">
     <path d="M 426.442641 107.652813
L 464.641547 107.652813
L 464.641547 97.962813
L 426.442641 97.962813
z
" style="fill: #e7f3f2"/>
    </g>
    <text style="font-weight: 700; font-size: 9.5px; font-family: 'DejaVu Sans'; text-anchor: middle; fill: #007c80" x="445.542094" y="105.275586" transform="rotate(-0 445.542094 105.275586)">+18.75</text>
   </g>
   <g id="LineCollection_3">
    <path d="M 328.378384 133.71143
L 381.632866 133.71143
" clip-path="url(#p89777cd701)" style="fill: none; stroke: #173349; stroke-width: 1.45"/>
   </g>
   <g id="line2d_10">
    <defs>
     <path id="m573132fc7d" d="M 0 3.2
L 0 -3.2
" style="stroke: #173349"/>
    </defs>
    <g clip-path="url(#p89777cd701)">
     <use xlink:href="#m573132fc7d" x="328.378384" y="133.71143" style="fill: #173349; stroke: #173349"/>
    </g>
   </g>
   <g id="line2d_11">
    <g clip-path="url(#p89777cd701)">
     <use xlink:href="#m573132fc7d" x="381.632866" y="133.71143" style="fill: #173349; stroke: #173349"/>
    </g>
   </g>
   <g id="text_8">
    <g id="patch_10">
     <path d="M 339.211133 132.777705
L 370.800117 132.777705
L 370.800117 123.087705
L 339.211133 123.087705
z
" style="fill: #ffffff"/>
    </g>
    <text style="font-weight: 700; font-size: 9.5px; font-family: 'DejaVu Sans'; text-anchor: middle; fill: #173349" x="355.005625" y="130.400478" transform="rotate(-0 355.005625 130.400478)">+0.67</text>
   </g>
   <g id="LineCollection_4">
    <path d="M 327.073741 158.836322
L 379.599759 158.836322
" clip-path="url(#p89777cd701)" style="fill: none; stroke: #173349; stroke-width: 1.45"/>
   </g>
   <g id="line2d_12">
    <g clip-path="url(#p89777cd701)">
     <use xlink:href="#m573132fc7d" x="327.073741" y="158.836322" style="fill: #173349; stroke: #173349"/>
    </g>
   </g>
   <g id="line2d_13">
    <g clip-path="url(#p89777cd701)">
     <use xlink:href="#m573132fc7d" x="379.599759" y="158.836322" style="fill: #173349; stroke: #173349"/>
    </g>
   </g>
   <g id="text_9">
    <g id="patch_11">
     <path d="M 337.542258 157.902597
L 369.131242 157.902597
L 369.131242 148.212597
L 337.542258 148.212597
z
" style="fill: #ffffff"/>
    </g>
    <text style="font-weight: 700; font-size: 9.5px; font-family: 'DejaVu Sans'; text-anchor: middle; fill: #173349" x="353.33675" y="155.525371" transform="rotate(-0 353.33675 155.525371)">+0.33</text>
   </g>
   <g id="LineCollection_5">
    <path d="M 334.88039 183.961214
L 373.461985 183.961214
" clip-path="url(#p89777cd701)" style="fill: none; stroke: #173349; stroke-width: 1.45"/>
   </g>
   <g id="line2d_14">
    <g clip-path="url(#p89777cd701)">
     <use xlink:href="#m573132fc7d" x="334.88039" y="183.961214" style="fill: #173349; stroke: #173349"/>
    </g>
   </g>
   <g id="line2d_15">
    <g clip-path="url(#p89777cd701)">
     <use xlink:href="#m573132fc7d" x="373.461985" y="183.961214" style="fill: #173349; stroke: #173349"/>
    </g>
   </g>
   <g id="text_10">
    <g id="patch_12">
     <path d="M 338.376695 183.027489
L 369.96568 183.027489
L 369.96568 173.337489
L 338.376695 173.337489
z
" style="fill: #ffffff"/>
    </g>
    <text style="font-weight: 700; font-size: 9.5px; font-family: 'DejaVu Sans'; text-anchor: middle; fill: #173349" x="354.171187" y="180.650263" transform="rotate(-0 354.171187 180.650263)">+0.50</text>
   </g>
   <g id="LineCollection_6">
    <path d="M 327.614413 209.086106
L 368.211399 209.086106
" clip-path="url(#p89777cd701)" style="fill: none; stroke: #173349; stroke-width: 1.45"/>
   </g>
   <g id="line2d_16">
    <g clip-path="url(#p89777cd701)">
     <use xlink:href="#m573132fc7d" x="327.614413" y="209.086106" style="fill: #173349; stroke: #173349"/>
    </g>
   </g>
   <g id="line2d_17">
    <g clip-path="url(#p89777cd701)">
     <use xlink:href="#m573132fc7d" x="368.211399" y="209.086106" style="fill: #173349; stroke: #173349"/>
    </g>
   </g>
   <g id="text_11">
    <g id="patch_13">
     <path d="M 334.127516 208.152381
L 361.698297 208.152381
L 361.698297 198.462381
L 334.127516 198.462381
z
" style="fill: #ffffff"/>
    </g>
    <text style="font-weight: 700; font-size: 9.5px; font-family: 'DejaVu Sans'; text-anchor: middle; fill: #173349" x="347.912906" y="205.775155" transform="rotate(-0 347.912906 205.775155)">-0.75</text>
   </g>
   <g id="LineCollection_7">
    <path d="M 308.239103 234.210999
L 364.22246 234.210999
" clip-path="url(#p89777cd701)" style="fill: none; stroke: #173349; stroke-width: 1.45"/>
   </g>
   <g id="line2d_18">
    <g clip-path="url(#p89777cd701)">
     <use xlink:href="#m573132fc7d" x="308.239103" y="234.210999" style="fill: #173349; stroke: #173349"/>
    </g>
   </g>
   <g id="line2d_19">
    <g clip-path="url(#p89777cd701)">
     <use xlink:href="#m573132fc7d" x="364.22246" y="234.210999" style="fill: #173349; stroke: #173349"/>
    </g>
   </g>
   <g id="text_12">
    <g id="patch_14">
     <path d="M 322.445391 233.277273
L 350.016172 233.277273
L 350.016172 223.587273
L 322.445391 223.587273
z
" style="fill: #ffffff"/>
    </g>
    <text style="font-weight: 700; font-size: 9.5px; font-family: 'DejaVu Sans'; text-anchor: middle; fill: #173349" x="336.230781" y="230.900047" transform="rotate(-0 336.230781 230.900047)">-3.08</text>
   </g>
   <g id="line2d_20">
    <defs>
     <path id="m098fcf9f89" d="M 0 2.25
C 0.596707 2.25 1.169055 2.012926 1.59099 1.59099
C 2.012926 1.169055 2.25 0.596707 2.25 0
C 2.25 -0.596707 2.012926 -1.169055 1.59099 -1.59099
C 1.169055 -2.012926 0.596707 -2.25 0 -2.25
C -0.596707 -2.25 -1.169055 -2.012926 -1.59099 -1.59099
C -2.012926 -1.169055 -2.25 -0.596707 -2.25 0
C -2.25 0.596707 -2.012926 1.169055 -1.59099 1.59099
C -1.169055 2.012926 -0.596707 2.25 0 2.25
z
" style="stroke: #007c80"/>
    </defs>
    <g clip-path="url(#p89777cd701)">
     <use xlink:href="#m098fcf9f89" x="453.886469" y="83.461646" style="fill: #007c80; stroke: #007c80"/>
    </g>
   </g>
   <g id="line2d_21">
    <g clip-path="url(#p89777cd701)">
     <use xlink:href="#m098fcf9f89" x="445.542094" y="108.586538" style="fill: #007c80; stroke: #007c80"/>
    </g>
   </g>
   <g id="line2d_22">
    <defs>
     <path id="mf5cd239bcf" d="M 0 2.25
C 0.596707 2.25 1.169055 2.012926 1.59099 1.59099
C 2.012926 1.169055 2.25 0.596707 2.25 0
C 2.25 -0.596707 2.012926 -1.169055 1.59099 -1.59099
C 1.169055 -2.012926 0.596707 -2.25 0 -2.25
C -0.596707 -2.25 -1.169055 -2.012926 -1.59099 -1.59099
C -2.012926 -1.169055 -2.25 -0.596707 -2.25 0
C -2.25 0.596707 -2.012926 1.169055 -1.59099 1.59099
C -1.169055 2.012926 -0.596707 2.25 0 2.25
z
" style="stroke: #173349"/>
    </defs>
    <g clip-path="url(#p89777cd701)">
     <use xlink:href="#mf5cd239bcf" x="355.005625" y="133.71143" style="fill: #173349; stroke: #173349"/>
    </g>
   </g>
   <g id="line2d_23">
    <g clip-path="url(#p89777cd701)">
     <use xlink:href="#mf5cd239bcf" x="353.33675" y="158.836322" style="fill: #173349; stroke: #173349"/>
    </g>
   </g>
   <g id="line2d_24">
    <g clip-path="url(#p89777cd701)">
     <use xlink:href="#mf5cd239bcf" x="354.171187" y="183.961214" style="fill: #173349; stroke: #173349"/>
    </g>
   </g>
   <g id="line2d_25">
    <g clip-path="url(#p89777cd701)">
     <use xlink:href="#mf5cd239bcf" x="347.912906" y="209.086106" style="fill: #173349; stroke: #173349"/>
    </g>
   </g>
   <g id="line2d_26">
    <g clip-path="url(#p89777cd701)">
     <use xlink:href="#mf5cd239bcf" x="336.230781" y="234.210999" style="fill: #173349; stroke: #173349"/>
    </g>
   </g>
  </g>
  <g id="text_13">
   <text style="font-weight: 700; font-size: 16px; font-family: 'DejaVu Sans'; text-anchor: start; fill: #173349" x="7.605" y="19.84" transform="rotate(-0 7.605 19.84)">A large gain against Alakazam</text>
  </g>
  <g id="text_14">
   <text style="font-size: 10.5px; font-family: 'DejaVu Sans'; text-anchor: start; fill: #173349" x="7.605" y="37.84" transform="rotate(-0 7.605 37.84)">Card + targeting change</text>
  </g>
  <g id="text_15">
   <text style="font-weight: 700; font-size: 9.5px; font-family: 'DejaVu Sans'; text-anchor: start; fill: #173349" x="7.605" y="52.04" transform="rotate(-0 7.605 52.04)">Opponent/pilot</text>
  </g>
  <g id="text_16">
   <text style="font-weight: 700; font-size: 9.5px; font-family: 'DejaVu Sans'; text-anchor: middle; fill: #173349" x="208.377" y="52.04" transform="rotate(-0 208.377 52.04)">Score (%)</text>
  </g>
  <g id="text_17">
   <text style="font-size: 9px; font-family: 'DejaVu Sans'; text-anchor: middle; fill: #173349" x="208.377" y="64.14" transform="rotate(-0 208.377 64.14)">Baseline → combined</text>
  </g>
  <g id="text_18">
   <text style="font-weight: 700; font-size: 9.5px; font-family: 'DejaVu Sans'; text-anchor: start; fill: #007c80" x="10.14" y="83.686991" transform="rotate(-0 10.14 83.686991)">Alakazam</text>
  </g>
  <g id="text_19">
   <text style="font-size: 9px; font-family: 'DejaVu Sans'; text-anchor: start; fill: #354f61" x="10.14" y="93.169088" transform="rotate(-0 10.14 93.169088)">llccqq624*</text>
  </g>
  <g id="text_20">
   <text style="font-size: 9.5px; font-family: 'DejaVu Sans'; text-anchor: middle; fill: #007c80" x="208.377" y="85.929419" transform="rotate(-0 208.377 85.929419)">36.67 → 57.08</text>
  </g>
  <g id="text_21">
   <text style="font-weight: 700; font-size: 9.5px; font-family: 'DejaVu Sans'; text-anchor: start; fill: #007c80" x="10.14" y="108.811883" transform="rotate(-0 10.14 108.811883)">Alakazam</text>
  </g>
  <g id="text_22">
   <text style="font-size: 9px; font-family: 'DejaVu Sans'; text-anchor: start; fill: #354f61" x="10.14" y="118.29398" transform="rotate(-0 10.14 118.29398)">raunakdey07</text>
  </g>
  <g id="text_23">
   <text style="font-size: 9.5px; font-family: 'DejaVu Sans'; text-anchor: middle; fill: #007c80" x="208.377" y="111.054312" transform="rotate(-0 208.377 111.054312)">20.67 → 39.42</text>
  </g>
  <g id="text_24">
   <text style="font-weight: 700; font-size: 9.5px; font-family: 'DejaVu Sans'; text-anchor: start; fill: #173349" x="10.14" y="133.936775" transform="rotate(-0 10.14 133.936775)">Steel</text>
  </g>
  <g id="text_25">
   <text style="font-size: 9px; font-family: 'DejaVu Sans'; text-anchor: start; fill: #354f61" x="10.14" y="143.418872" transform="rotate(-0 10.14 143.418872)">plamen06</text>
  </g>
  <g id="text_26">
   <text style="font-size: 9.5px; font-family: 'DejaVu Sans'; text-anchor: middle; fill: #173349" x="208.377" y="136.179204" transform="rotate(-0 208.377 136.179204)">32.50 → 33.17</text>
  </g>
  <g id="text_27">
   <text style="font-weight: 700; font-size: 9.5px; font-family: 'DejaVu Sans'; text-anchor: start; fill: #173349" x="10.14" y="159.061667" transform="rotate(-0 10.14 159.061667)">Snapshot</text>
  </g>
  <g id="text_28">
   <text style="font-size: 9px; font-family: 'DejaVu Sans'; text-anchor: start; fill: #354f61" x="10.14" y="168.543764" transform="rotate(-0 10.14 168.543764)">aristophanivan</text>
  </g>
  <g id="text_29">
   <text style="font-size: 9.5px; font-family: 'DejaVu Sans'; text-anchor: middle; fill: #173349" x="208.377" y="161.304096" transform="rotate(-0 208.377 161.304096)">31.00 → 31.33</text>
  </g>
  <g id="text_30">
   <text style="font-weight: 700; font-size: 9.5px; font-family: 'DejaVu Sans'; text-anchor: start; fill: #173349" x="10.14" y="184.186559" transform="rotate(-0 10.14 184.186559)">Dragapult</text>
  </g>
  <g id="text_31">
   <text style="font-size: 9px; font-family: 'DejaVu Sans'; text-anchor: start; fill: #354f61" x="10.14" y="193.668657" transform="rotate(-0 10.14 193.668657)">zoli800</text>
  </g>
  <g id="text_32">
   <text style="font-size: 9.5px; font-family: 'DejaVu Sans'; text-anchor: middle; fill: #173349" x="208.377" y="186.428988" transform="rotate(-0 208.377 186.428988)">86.33 → 86.83</text>
  </g>
  <g id="text_33">
   <text style="font-weight: 700; font-size: 9.5px; font-family: 'DejaVu Sans'; text-anchor: start; fill: #173349" x="10.14" y="209.311451" transform="rotate(-0 10.14 209.311451)">Crustle</text>
  </g>
  <g id="text_34">
   <text style="font-size: 9px; font-family: 'DejaVu Sans'; text-anchor: start; fill: #354f61" x="10.14" y="218.793549" transform="rotate(-0 10.14 218.793549)">harukiharada</text>
  </g>
  <g id="text_35">
   <text style="font-size: 9.5px; font-family: 'DejaVu Sans'; text-anchor: middle; fill: #173349" x="208.377" y="211.55388" transform="rotate(-0 208.377 211.55388)">85.25 → 84.50</text>
  </g>
  <g id="text_36">
   <text style="font-weight: 700; font-size: 9.5px; font-family: 'DejaVu Sans'; text-anchor: start; fill: #173349" x="10.14" y="234.436343" transform="rotate(-0 10.14 234.436343)">Grimmsnarl</text>
  </g>
  <g id="text_37">
   <text style="font-size: 9px; font-family: 'DejaVu Sans'; text-anchor: start; fill: #354f61" x="10.14" y="243.918089" transform="rotate(-0 10.14 243.918089)">BC (not c61)</text>
  </g>
  <g id="text_38">
   <text style="font-size: 9.5px; font-family: 'DejaVu Sans'; text-anchor: middle; fill: #173349" x="208.377" y="236.678772" transform="rotate(-0 208.377 236.678772)">58.92 → 55.83</text>
  </g>
  <g id="text_39">
   <text style="font-size: 9px; font-family: 'DejaVu Sans'; text-anchor: start; fill: #173349" x="7.605" y="277.2468" transform="rotate(-0 7.605 277.2468)">8,400 games · Approx. 95% intervals · win 1, draw ½, loss 0</text>
  </g>
  <g id="text_40">
   <text style="font-size: 9px; font-family: 'DejaVu Sans'; text-anchor: start; fill: #173349" x="7.605" y="292.9464" transform="rotate(-0 7.605 292.9464)">* Development deck, different pilot.</text>
  </g>
 </g>
 <defs>
  <clipPath id="p89777cd701">
   <rect x="296.595" y="70.8992" width="200.265" height="174.618"/>
  </clipPath>
 </defs>
</svg>
